<svg width="15" height="10" viewBox="0 0 15 10" fill="none" xmlns="http://www.w3.org/2000/svg">
<path d="M1.125 4.4375C0.81434 4.4375 0.5625 4.68934 0.5625 5C0.5625 5.31066 0.81434 5.5625 1.125 5.5625L1.125 4.4375ZM14.6477 5.39775C14.8674 5.17808 14.8674 4.82192 14.6477 4.60225L11.068 1.02253C10.8483 0.802855 10.4922 0.802855 10.2725 1.02253C10.0529 1.2422 10.0529 1.59835 10.2725 1.81802L13.4545 5L10.2725 8.18198C10.0529 8.40165 10.0529 8.75781 10.2725 8.97748C10.4922 9.19715 10.8483 9.19715 11.068 8.97748L14.6477 5.39775ZM1.125 5.5625L14.25 5.5625L14.25 4.4375L1.125 4.4375L1.125 5.5625Z" fill="#3B374F"/>
</svg>
