<svg width="15" height="10" viewBox="0 0 15 10" fill="none" xmlns="http://www.w3.org/2000/svg">
<path d="M14.125 4.4375C14.4357 4.4375 14.6875 4.68934 14.6875 5C14.6875 5.31066 14.4357 5.5625 14.125 5.5625L14.125 4.4375ZM0.602253 5.39775C0.382583 5.17808 0.382583 4.82192 0.602253 4.60225L4.18198 1.02253C4.40165 0.802855 4.75781 0.802855 4.97748 1.02253C5.19715 1.2422 5.19715 1.59835 4.97748 1.81802L1.7955 5L4.97748 8.18198C5.19715 8.40165 5.19715 8.75781 4.97748 8.97748C4.75781 9.19715 4.40165 9.19715 4.18198 8.97748L0.602253 5.39775ZM14.125 5.5625L1 5.5625L1 4.4375L14.125 4.4375L14.125 5.5625Z" fill="#3B374F"/>
</svg>
